<svg xmlns="http://www.w3.org/2000/svg" version="1.1" xmlns:xlink="http://www.w3.org/1999/xlink" xmlns:svgjs="http://svgjs.dev/svgjs" width="1500" height="1500" viewBox="0 0 1500 1500"><rect width="1500" height="1500" fill="#000000"></rect><g transform="matrix(0.6666666666666666,0,0,0.6666666666666666,249.23184778042076,148.1543859649123)"><svg viewBox="0 0 205 247" data-background-color="#dedede" preserveAspectRatio="xMidYMid meet" height="1807" width="1500" xmlns="http://www.w3.org/2000/svg" xmlns:xlink="http://www.w3.org/1999/xlink"><g id="tight-bounds" transform="matrix(1,0,0,1,0.15747120501373502,-0.09999999999999432)"><svg viewBox="0 0 204.68505758997256 247.2" height="247.2" width="204.68505758997256"><g><svg viewBox="0 0 395.52000000000004 477.6730903135053" height="247.2" width="204.68505758997256"><g transform="matrix(1,0,0,1,0,295.22113310771556)"><svg viewBox="0 0 395.52000000000004 182.4519572057898" height="182.4519572057898" width="395.52000000000004"><g id="textblocktransform"><svg viewBox="0 0 395.52000000000004 182.4519572057898" height="182.4519572057898" width="395.52000000000004" id="textblock"><g><svg viewBox="0 0 395.52000000000004 182.4519572057898" height="182.4519572057898" width="395.52000000000004"><g transform="matrix(1,0,0,1,0,0)"><svg width="395.52000000000004" viewBox="-0.25 -36.25 79.45 36.65" height="182.4519572057898" data-palette-color="#374151"><path d="M-0.25 0L12.75-33.85 17.45-33.85 30.5 0 24.15 0 21.05-8.85 8.85-8.85 5.65 0-0.25 0ZM10.45-13.25L19.5-13.25Q17.9-17.75 16.75-21.43 15.6-25.1 15-27.2L15-27.2Q14.3-24.95 13.15-21.3 12-17.65 10.45-13.25L10.45-13.25ZM56-1.4L51.55 0.4Q51.45 0.35 51.1-0.08 50.75-0.5 50.32-1.25 49.9-2 49.5-3.13 49.1-4.25 49-5.75L49-5.75Q48.15-2.75 46.27-1.23 44.4 0.3 41.2 0.3L41.2 0.3Q38.85 0.3 37.12-0.58 35.4-1.45 34.25-3.08 33.1-4.7 32.55-7 32-9.3 32-12.1L32-12.1Q32-14.95 32.87-17.38 33.75-19.8 35.32-21.55 36.9-23.3 39.1-24.3 41.3-25.3 43.95-25.3L43.95-25.3Q44.85-25.3 45.87-25.2 46.9-25.1 47.9-24.95L47.9-24.95 47.9-36.25 53.6-35.25 53.6-12.05Q53.6-9.05 53.95-7.08 54.3-5.1 54.75-3.88 55.2-2.65 55.57-2.1 55.95-1.55 56-1.4L56-1.4ZM42.15-3.75Q43.4-3.75 44.45-4.6 45.5-5.45 46.27-6.83 47.05-8.2 47.47-9.95 47.9-11.7 47.9-13.55L47.9-13.55 47.9-20.75Q47.4-20.9 46.4-21.1 45.4-21.3 44.6-21.3L44.6-21.3Q42.7-21.3 41.47-20.65 40.25-20 39.5-18.85 38.75-17.7 38.45-16.1 38.15-14.5 38.15-12.6L38.15-12.6Q38.15-10.85 38.25-9.25 38.35-7.65 38.77-6.43 39.2-5.2 40-4.48 40.8-3.75 42.15-3.75L42.15-3.75ZM58.8-11.85Q58.8-15.2 59.72-17.75 60.65-20.3 62.27-22.03 63.9-23.75 66.09-24.63 68.3-25.5 70.84-25.5L70.84-25.5Q73.09-25.5 74.67-24.95 76.25-24.4 77.25-23.45 78.25-22.5 78.72-21.2 79.2-19.9 79.2-18.4L79.2-18.4Q79.2-16.6 78.2-14.98 77.2-13.35 75.32-12.13 73.45-10.9 70.8-10.18 68.15-9.45 64.84-9.4L64.84-9.4Q65-8.25 65.32-7.23 65.64-6.2 66.27-5.43 66.9-4.65 67.9-4.2 68.9-3.75 70.4-3.75L70.4-3.75Q71.5-3.75 72.75-4 74-4.25 75.05-4.6L75.05-4.6Q76.3-5 77.5-5.5L77.5-5.5 79-1.95Q77.7-1.3 76.2-0.8L76.2-0.8Q74.9-0.35 73.2 0 71.5 0.35 69.59 0.35L69.59 0.35Q66.7 0.35 64.64-0.53 62.59-1.4 61.3-3 60-4.6 59.4-6.85 58.8-9.1 58.8-11.85L58.8-11.85ZM70.4-21.6Q68.75-21.6 67.67-20.83 66.59-20.05 65.95-18.82 65.3-17.6 65.02-16.07 64.75-14.55 64.7-13L64.7-13Q67.09-13.1 68.77-13.63 70.45-14.15 71.5-14.93 72.55-15.7 73.02-16.6 73.5-17.5 73.5-18.4L73.5-18.4Q73.5-19.85 72.65-20.73 71.8-21.6 70.4-21.6L70.4-21.6Z" opacity="1" transform="matrix(1,0,0,1,0,0)" fill="#ffffff" class="wordmark-text-0" data-fill-palette-color="primary" id="text-0"></path></svg></g></svg></g></svg></g></svg></g><g transform="matrix(1,0,0,1,110.23369788005665,0)"><svg viewBox="0 0 175.05260423988673 252.1486048584015" height="252.1486048584015" width="175.05260423988673"><g><svg xmlns="http://www.w3.org/2000/svg" xmlns:xlink="http://www.w3.org/1999/xlink" version="1.1" x="8" y="0" viewBox="13 3 38 60.242000000000004" style="enable-background:new 0 0 64 64;" xml:space="preserve" height="252.1486048584015" width="159.05260423988673" class="icon-icon-0" data-fill-palette-color="accent" id="icon-0"><g fill="#374151" data-fill-palette-color="accent"><polygon points="22,57 24,61 26,57 26,53 22,53  " fill="#ffffff" data-fill-palette-color="accent"></polygon><path d="M24 42c-2 0-2 1.55-2 1.55V46h4v-2.45C26 43.55 26 42 24 42z" fill="#ffffff" data-fill-palette-color="accent"></path><path d="M38 43.55V46h4v-2.45c0 0 0-1.55-2-1.55S38 43.55 38 43.55z" fill="#ffffff" data-fill-palette-color="accent"></path><polygon points="36.484,53 33.948,58.916 35.03,63.242 36.97,62.758 36.052,59.084 38.659,53  " fill="#ffffff" data-fill-palette-color="accent"></polygon><polygon points="41.341,53 43.948,59.084 43.03,62.758 44.97,63.242 46.052,58.916 43.516,53  " fill="#ffffff" data-fill-palette-color="accent"></polygon><path d="M36.777 31.493l-0.145-0.436C35.222 31.656 33.656 32 32 32s-3.222-0.344-4.632-0.943l-0.145 0.436L32 33.882 36.777 31.493z" fill="#ffffff" data-fill-palette-color="accent"></path><circle cx="38" cy="21" r="2.0" fill="#ffffff" data-fill-palette-color="accent"></circle><path d="M41 17h-3c1.201 0 2.266 0.542 3 1.382V17z" fill="#ffffff" data-fill-palette-color="accent"></path><circle cx="26" cy="21" r="2.0" fill="#ffffff" data-fill-palette-color="accent"></circle><path d="M29.561 34.899L27 33.618v0.676c0 0.558 0.125 1.055 0.329 1.497L29.561 34.899z" fill="#ffffff" data-fill-palette-color="accent"></path><path d="M32 30c4.222 0 7.765-2.601 8.731-6.093C40.015 24.58 39.058 25 38 25c-2.206 0-4-1.794-4-4h-4c0 2.206-1.794 4-4 4-1.058 0-2.015-0.42-2.731-1.093C24.235 27.399 27.778 30 32 30zM31 25c0 0.552 0.448 1 1 1s1-0.448 1-1h2c0 1.654-1.346 3-3 3s-3-1.346-3-3H31z" fill="#ffffff" data-fill-palette-color="accent"></path><path d="M23 18.382C23.734 17.542 24.799 17 26 17h-3V18.382z" fill="#ffffff" data-fill-palette-color="accent"></path><path d="M33 3.043C32.672 3.02 32.342 3 32 3s-0.672 0.02-1 0.043V7h2V3.043z" fill="#ffffff" data-fill-palette-color="accent"></path><path d="M29.444 19h5.112c0.694-1.19 1.97-2 3.444-2H26C27.474 17 28.75 17.81 29.444 19z" fill="#ffffff" data-fill-palette-color="accent"></path><path d="M35 3.339V7h2v2h-2v2h7.918C42.431 7.667 39.549 4.37 35 3.339z" fill="#ffffff" data-fill-palette-color="accent"></path><rect x="31" y="9" width="2" height="2" fill="#ffffff" data-fill-palette-color="accent"></rect><rect x="19" y="13" width="26" height="2" fill="#ffffff" data-fill-palette-color="accent"></rect><path d="M29 9h-2V7h2V3.339C24.451 4.37 21.569 7.667 21.082 11H29V9z" fill="#ffffff" data-fill-palette-color="accent"></path><path d="M25.686 37H19v8h1v-1.45c0-1.372 1.086-3.55 4-3.55s4 2.178 4 3.55V45c0.352 0 0.686 0.072 1 0.184v-5.439C27.671 39.264 26.424 38.333 25.686 37z" fill="#ffffff" data-fill-palette-color="accent"></path><path d="M32.046 36.095L32 36.118l-0.046-0.023-3.216 1.286c0.463 0.303 0.972 0.526 1.486 0.643L31 38.203V48h2v-9.797l0.776-0.178c0.513-0.118 1.023-0.341 1.486-0.643L32.046 36.095z" fill="#ffffff" data-fill-palette-color="accent"></path><path d="M28 47H13v3c0 0.552 0.448 1 1 1h14c0.552 0 1-0.448 1-1v-2C29 47.448 28.552 47 28 47z" fill="#ffffff" data-fill-palette-color="accent"></path><path d="M35 48v2c0 0.552 0.448 1 1 1h14c0.552 0 1-0.448 1-1v-3H36C35.448 47 35 47.448 35 48z" fill="#ffffff" data-fill-palette-color="accent"></path><path d="M47 36.227V45h4v-2.235C51 40.415 49.404 38.047 47 36.227z" fill="#ffffff" data-fill-palette-color="accent"></path><path d="M17 36.227c-2.404 1.82-4 4.188-4 6.538V45h4V36.227z" fill="#ffffff" data-fill-palette-color="accent"></path><path d="M45 45v-8h-6.686c-0.738 1.333-1.985 2.264-3.314 2.745v5.439C35.314 45.072 35.648 45 36 45v-1.45c0-1.372 1.086-3.55 4-3.55s4 2.178 4 3.55V45H45z" fill="#ffffff" data-fill-palette-color="accent"></path><path d="M25 34.294v-1.227c-2.122 0.215-4.189 0.9-6 1.878V35h6.06C25.032 34.769 25 34.54 25 34.294z" fill="#ffffff" data-fill-palette-color="accent"></path><path d="M37 34.294v-0.676l-2.561 1.28 2.232 0.893C36.875 35.349 37 34.852 37 34.294z" fill="#ffffff" data-fill-palette-color="accent"></path><path d="M45 34.945c-1.811-0.978-3.878-1.663-6-1.878v1.227c0 0.246-0.032 0.475-0.06 0.706H45V34.945z" fill="#ffffff" data-fill-palette-color="accent"></path><path d="M20.5 23h0.556C21.02 22.671 21 22.338 21 22v-3h-0.5c-0.813 0-1.5 0.916-1.5 2S19.687 23 20.5 23z" fill="#ffffff" data-fill-palette-color="accent"></path><path d="M43.5 19H43v3c0 0.338-0.02 0.671-0.056 1H43.5c0.813 0 1.5-0.916 1.5-2S44.313 19 43.5 19z" fill="#ffffff" data-fill-palette-color="accent"></path></g></svg></g></svg></g><g><rect width="14.816226675042913" height="16.45370579123796" y="234.69489906716356" x="285.2863021199434" fill="#ffffff" data-fill-palette-color="accent"></rect><rect width="14.816226675042913" height="16.45370579123796" y="234.69489906716356" x="95.41747120501374" fill="#ffffff" data-fill-palette-color="accent"></rect><rect width="14.816226675042913" height="16.45370579123796" y="201.78748748468763" x="285.2863021199434" fill="#ffffff" data-fill-palette-color="accent"></rect><rect width="14.816226675042913" height="16.45370579123796" y="201.78748748468763" x="95.41747120501374" fill="#ffffff" data-fill-palette-color="accent"></rect></g></svg></g><defs></defs></svg><rect width="204.68505758997256" height="247.2" fill="none" stroke="none" visibility="hidden"></rect></g></svg></g></svg>